<svg width="1440" height="1024" viewBox="0 0 1440 1024" fill="none" xmlns="http://www.w3.org/2000/svg">
<rect width="1440" height="1024" fill="white"/>
<g clip-path="url(#clip0)">
<path d="M859.939 465.072C824.34 494.171 781.786 465.892 807.564 449.498C838.661 429.825 837.025 401.956 861.984 396.218C882.034 391.709 898.81 433.514 859.939 465.072Z" fill="url(#paint0_linear)"/>
<path d="M1175.41 368.758C1175.41 368.758 1217.97 410.972 1267.48 411.792C1317.4 412.612 1316.17 361.381 1279.75 349.905C1223.7 332.282 1231.47 267.116 1182.37 285.559C1164.78 291.707 1139 331.052 1175.41 368.758Z" fill="url(#paint1_linear)"/>
<path d="M814.111 750.736C814.111 750.736 734.731 669.996 755.189 581.469C771.966 507.696 819.021 498.27 861.984 472.04C911.495 441.711 882.443 365.479 889.399 310.56C894.719 269.165 933.181 242.525 970.007 241.295C1098.08 236.787 1099.31 356.053 1236.79 422.448C1302.26 454.006 1351.77 522.451 1354.63 590.486C1359.13 698.276 1305.12 750.736 1305.12 750.736H814.111Z" fill="url(#paint2_linear)"/>
<path opacity="0.2" d="M791.197 750.737C791.197 750.737 715.499 703.604 720.409 628.602C724.501 560.157 769.51 532.697 851.346 503.598C961.414 464.663 940.137 359.742 1031.79 333.921C1123.45 308.511 1123.86 408.923 1223.29 439.662C1275.25 456.056 1335.81 463.843 1364.45 540.894C1403.32 645.406 1271.57 750.327 1271.57 750.327" fill="url(#paint3_linear)"/>
<path d="M765.009 750.736H1341.54" stroke="#1D244C" stroke-miterlimit="10" stroke-linecap="round"/>
<path d="M964.279 760.983C964.279 760.983 941.774 571.633 871.805 513.025C857.074 500.729 846.436 494.991 838.661 494.172C810.837 492.122 833.751 560.977 878.352 633.11C924.179 706.883 918.86 711.391 943.001 763.442" fill="url(#paint4_linear)"/>
<path d="M837.434 499.09C848.891 515.074 859.529 531.878 869.35 549.091C871.805 539.255 871.805 529.418 872.623 519.582C872.623 518.762 873.851 518.762 873.851 519.582C875.487 529.009 874.669 542.124 870.577 551.14C877.533 563.436 883.671 575.731 889.808 588.027C890.627 583.928 891.854 579.83 893.082 575.731C894.719 567.944 895.128 560.567 895.537 552.78C895.537 551.96 896.764 551.96 896.764 552.78C898.81 565.895 894.719 578.19 890.627 590.486C897.583 604.83 904.13 619.175 910.267 633.93C911.086 630.241 912.313 626.962 913.132 623.684C914.768 615.896 915.177 608.519 915.587 600.732C915.587 599.912 916.814 599.912 916.814 600.732C918.86 613.437 915.177 625.323 911.495 636.799C916.814 649.094 921.315 661.799 926.225 674.505C927.044 671.226 928.271 667.947 929.089 664.668C930.726 656.881 931.135 649.504 931.544 641.717C931.544 640.897 932.772 640.897 932.772 641.717C934.818 654.012 931.135 665.898 927.453 677.783C927.453 678.193 927.862 678.603 927.862 679.013C935.227 699.505 942.183 720.408 947.912 741.72C948.73 745.408 955.277 760.983 952.003 764.671C951.594 765.491 950.367 764.261 951.185 763.851C952.003 763.032 949.957 756.064 949.548 754.835C947.911 748.687 946.275 742.539 944.638 736.392C939.319 717.539 932.772 698.686 925.816 680.243C925.816 680.243 925.407 679.833 925.407 679.423C924.588 677.374 924.179 675.734 923.361 673.685C920.906 667.537 918.451 661.39 915.996 655.242C914.359 655.242 912.722 654.832 911.086 654.422C907.812 653.602 903.72 651.963 901.265 649.914C900.856 649.504 901.265 648.684 901.675 648.684C906.175 649.914 910.267 652.373 914.768 653.193C910.676 642.536 906.175 632.29 901.265 622.044C900.038 622.044 898.401 621.634 897.174 621.224C893.9 620.405 889.808 618.765 887.353 616.716C886.944 616.306 887.353 615.487 887.763 615.487C891.854 616.306 895.946 618.765 900.038 619.585C899.219 617.536 897.992 615.077 897.174 613.027C885.717 614.257 870.986 602.781 866.076 593.765C865.667 593.355 866.485 592.535 866.895 592.945C874.26 600.322 884.898 610.568 896.355 611.388C891.036 599.502 884.898 588.027 879.17 576.551C867.713 577.371 853.392 566.305 848.482 557.288C848.072 556.878 848.891 556.059 849.3 556.468C856.665 563.846 866.895 573.682 878.351 574.912C865.258 549.501 850.937 524.91 835.797 500.319C836.206 499.09 837.025 498.68 837.434 499.09Z" fill="url(#paint5_linear)"/>
<path d="M1175 754.835C1175 754.835 1187.28 600.732 1238.02 599.912C1288.35 599.093 1214.29 705.243 1202.01 740.08C1202.01 740.08 1260.11 635.159 1285.48 660.98C1310.85 686.8 1237.61 722.867 1220.01 746.638C1220.01 746.638 1331.72 668.357 1335.81 717.949C1336.22 724.916 1328.86 734.752 1303.9 739.671C1278.53 744.589 1244.16 746.228 1222.47 769.589" fill="url(#paint6_linear)"/>
<path d="M1235.56 616.716C1216.33 646.635 1205.28 681.472 1195.46 715.49C1188.1 740.9 1179.91 767.54 1177.46 794.18C1177.46 795 1178.69 795 1178.69 794.18C1190.96 734.343 1204.87 670.816 1236.38 617.536C1237.2 616.716 1235.97 615.897 1235.56 616.716Z" fill="url(#paint7_linear)"/>
<path d="M1276.48 669.177C1252.75 688.849 1232.7 712.621 1214.29 736.802C1201.19 754.425 1186.05 773.278 1177.46 793.361C1177.05 794.18 1178.28 794.59 1178.69 793.77C1205.69 748.687 1238.02 705.243 1277.3 669.996C1278.12 669.586 1277.3 668.767 1276.48 669.177Z" fill="url(#paint8_linear)"/>
<path d="M1316.99 715.899C1264.61 722.457 1211.42 753.196 1177.87 793.361C1177.46 793.77 1178.28 795 1178.69 794.18C1217.15 756.064 1262.98 726.146 1317.4 717.129C1318.22 717.129 1317.81 715.899 1316.99 715.899Z" fill="url(#paint9_linear)"/>
<path d="M931.544 754.835C931.544 754.835 919.269 600.732 868.531 599.912C818.202 599.093 892.263 705.243 904.539 740.08C904.539 740.08 846.436 635.159 821.067 660.98C795.698 686.8 868.94 722.867 886.535 746.638C886.535 746.638 774.83 668.357 770.738 717.949C770.329 724.916 777.694 734.752 802.654 739.671C828.023 744.589 862.393 746.228 884.08 769.589" fill="url(#paint10_linear)"/>
<path d="M869.759 617.536C901.265 670.406 915.177 734.343 927.453 794.18C927.453 795 928.68 794.59 928.68 794.18C926.225 767.95 918.042 740.9 910.676 715.49C900.856 681.882 889.808 646.635 870.577 616.716C870.577 615.897 869.349 616.716 869.759 617.536Z" fill="url(#paint11_linear)"/>
<path d="M828.841 670.406C868.122 705.653 900.856 749.097 927.453 794.18C927.862 794.59 928.68 794.18 928.68 793.771C920.087 773.278 904.948 754.425 891.854 737.212C873.441 713.03 853.392 689.259 829.659 669.587C829.25 668.767 828.432 669.587 828.841 670.406Z" fill="url(#paint12_linear)"/>
<path d="M789.151 717.129C843.571 725.736 889.399 756.064 927.862 794.18C928.271 794.59 929.089 793.77 928.68 793.361C895.128 753.196 841.935 722.457 789.56 715.899C788.742 715.899 788.333 717.129 789.151 717.129Z" fill="url(#paint13_linear)"/>
<path d="M835.797 621.634C850.528 674.505 892.673 721.227 944.229 740.9C945.456 741.31 945.866 739.67 945.047 738.851C911.086 719.178 880.807 698.276 859.12 664.668C850.118 650.733 843.572 636.389 838.252 620.814C837.434 619.175 835.388 619.995 835.797 621.634Z" fill="url(#paint14_linear)"/>
<path d="M800.199 582.699C800.199 582.699 807.564 627.372 837.843 625.323C837.843 625.323 835.797 607.699 826.386 597.863C816.975 588.027 808.382 585.977 804.7 577.78C801.017 569.174 798.971 574.911 800.199 582.699Z" fill="url(#paint15_linear)"/>
<path d="M837.843 625.323C837.843 625.323 827.204 605.24 835.797 586.387C844.39 567.944 840.707 561.796 843.98 561.796C851.346 561.796 862.393 615.896 837.843 625.323Z" fill="url(#paint16_linear)"/>
<path d="M819.43 599.912C816.975 592.125 814.929 568.764 820.658 565.485C824.749 563.026 834.979 576.961 840.298 592.535C843.981 603.601 840.707 615.077 834.57 615.487C828.023 615.896 821.067 604.831 819.43 599.912Z" fill="url(#paint17_linear)"/>
<path d="M834.57 576.551C835.388 577.78 835.388 579.42 834.16 580.649C832.933 581.469 831.296 581.469 830.069 580.24C828.841 579.01 829.25 577.371 830.478 576.141C831.705 574.912 833.751 575.321 834.57 576.551Z" fill="white"/>
<path d="M817.384 576.551C818.203 577.781 818.203 579.42 816.975 580.649C815.747 581.469 814.111 581.469 812.883 580.24C812.065 579.01 812.065 577.371 813.292 576.141C814.52 575.321 816.157 575.321 817.384 576.551Z" fill="white"/>
<path d="M831.705 565.895C832.524 567.124 832.524 568.764 831.296 569.993C830.069 570.813 828.432 570.813 827.204 569.584C826.386 568.354 826.386 566.715 827.614 565.485C829.25 564.256 830.887 564.665 831.705 565.895Z" fill="white"/>
<path d="M815.338 571.633C815.747 572.452 815.747 573.272 814.929 574.092C814.11 574.502 813.292 574.502 812.474 573.682C811.655 572.862 812.065 572.043 812.883 571.223C813.701 570.813 814.929 570.813 815.338 571.633Z" fill="white"/>
<path d="M838.252 570.813C838.661 571.633 838.661 572.452 837.843 573.272C837.025 573.682 836.206 573.682 835.388 572.862C834.979 572.043 834.979 571.223 835.797 570.403C836.616 569.993 837.434 570.403 838.252 570.813Z" fill="white"/>
<path d="M1272.8 604.831C1267.48 620.405 1260.93 635.159 1251.93 648.684C1230.24 682.292 1199.96 703.194 1166 722.867C1165.18 723.277 1165.59 725.326 1166.82 724.916C1218.38 705.243 1260.52 658.521 1275.25 605.65C1275.66 604.011 1273.21 603.601 1272.8 604.831Z" fill="url(#paint18_linear)"/>
<path d="M1310.44 566.715C1310.44 566.715 1303.08 611.388 1272.8 609.339C1272.8 609.339 1274.84 591.715 1284.25 581.879C1293.67 572.043 1302.26 569.994 1305.94 561.797C1309.62 553.6 1311.67 559.338 1310.44 566.715Z" fill="url(#paint19_linear)"/>
<path d="M1272.8 609.339C1272.8 609.339 1283.44 589.256 1274.84 570.403C1266.25 551.96 1269.93 545.812 1266.66 545.812C1259.29 546.222 1248.25 599.912 1272.8 609.339Z" fill="url(#paint20_linear)"/>
<path d="M1291.21 583.928C1293.67 576.141 1295.71 552.78 1289.98 549.501C1285.89 547.042 1275.66 560.977 1270.34 576.551C1266.66 587.617 1269.93 599.093 1276.07 599.502C1282.62 599.912 1289.57 588.846 1291.21 583.928Z" fill="url(#paint21_linear)"/>
<path d="M1276.07 560.567C1275.25 561.797 1275.25 563.436 1276.48 564.666C1277.71 565.485 1279.34 565.485 1280.57 564.256C1281.39 563.026 1281.39 561.387 1280.16 560.157C1278.94 559.338 1276.89 559.338 1276.07 560.567Z" fill="white"/>
<path d="M1293.67 560.567C1292.85 561.797 1292.85 563.436 1294.07 564.666C1295.3 565.485 1296.94 565.485 1298.17 564.256C1298.98 563.026 1298.98 561.387 1297.76 560.157C1296.12 559.338 1294.48 559.338 1293.67 560.567Z" fill="white"/>
<path d="M1278.94 549.911C1278.12 551.141 1278.12 552.78 1279.34 554.01C1280.57 554.829 1282.21 554.829 1283.44 553.6C1284.25 552.37 1284.25 550.731 1283.03 549.501C1281.8 548.682 1279.75 548.682 1278.94 549.911Z" fill="white"/>
<path d="M1295.3 555.649C1294.89 556.468 1294.89 557.288 1295.71 558.108C1296.53 558.518 1297.35 558.518 1298.17 557.698C1298.58 556.878 1298.58 556.059 1297.76 555.239C1296.94 554.829 1295.71 554.829 1295.3 555.649Z" fill="white"/>
<path d="M1272.39 555.239C1271.98 556.059 1271.98 556.878 1272.8 557.698C1273.62 558.108 1274.43 558.108 1275.25 557.288C1275.66 556.469 1275.66 555.649 1274.84 554.829C1274.03 554.419 1273.21 554.419 1272.39 555.239Z" fill="white"/>
<path d="M1127.95 760.983C1127.95 760.983 1150.45 571.633 1220.42 513.025C1235.15 500.729 1245.79 494.991 1253.57 494.172C1281.39 492.122 1258.48 560.977 1213.88 633.11C1168.05 706.883 1173.37 711.391 1149.23 763.442" fill="url(#paint22_linear)"/>
<path d="M1254.38 499.09C1242.93 515.074 1232.29 531.878 1222.47 549.091C1220.01 539.255 1220.01 529.418 1219.2 519.582C1219.2 518.762 1217.97 518.762 1217.97 519.582C1216.33 529.009 1217.15 542.124 1221.24 551.14C1214.29 563.436 1208.15 575.731 1202.01 588.027C1201.19 583.928 1199.96 579.83 1198.74 575.731C1197.1 567.944 1196.69 560.567 1196.28 552.78C1196.28 551.96 1195.05 551.96 1195.05 552.78C1193.01 565.895 1197.1 578.19 1201.19 590.486C1194.24 604.83 1187.69 619.175 1181.55 633.93C1180.73 630.241 1179.51 626.962 1178.69 623.684C1177.05 615.896 1176.64 608.519 1176.23 600.732C1176.23 599.912 1175 599.912 1175 600.732C1172.96 613.437 1176.64 625.323 1180.32 636.799C1175 649.094 1170.5 661.799 1165.59 674.505C1164.78 671.226 1163.55 667.947 1162.73 664.668C1161.09 656.881 1160.68 649.504 1160.27 641.717C1160.27 640.897 1159.05 640.897 1159.05 641.717C1157 654.012 1160.68 665.898 1164.37 677.783C1164.37 678.193 1163.96 678.603 1163.96 679.013C1156.59 699.505 1149.64 720.408 1143.91 741.72C1143.09 745.408 1136.54 760.983 1139.82 764.671C1140.22 765.491 1141.45 764.261 1140.63 763.851C1139.82 763.032 1141.86 756.064 1142.27 754.835C1143.91 748.687 1145.54 742.539 1147.18 736.392C1152.5 717.539 1159.05 698.686 1166 680.243C1166 680.243 1166.41 679.833 1166.41 679.423C1167.23 677.374 1167.64 675.734 1168.46 673.685C1170.91 667.537 1173.37 661.39 1175.82 655.242C1177.46 655.242 1179.1 654.832 1180.73 654.422C1184.01 653.602 1188.1 651.963 1190.55 649.914C1190.96 649.504 1190.55 648.684 1190.14 648.684C1185.64 649.914 1181.55 652.373 1177.05 653.193C1181.14 642.536 1185.64 632.29 1190.55 622.044C1191.78 622.044 1193.42 621.634 1194.64 621.224C1197.92 620.405 1202.01 618.765 1204.47 616.716C1204.87 616.306 1204.47 615.487 1204.06 615.487C1199.96 616.306 1195.87 618.765 1191.78 619.585C1192.6 617.536 1193.83 615.077 1194.64 613.027C1206.1 614.257 1220.83 602.781 1225.74 593.765C1226.15 593.355 1225.33 592.535 1224.92 592.945C1217.56 600.322 1206.92 610.568 1195.46 611.388C1200.78 599.502 1206.92 588.027 1212.65 576.551C1224.11 577.371 1238.43 566.305 1243.34 557.288C1243.75 556.878 1242.93 556.059 1242.52 556.468C1235.15 563.846 1224.92 573.682 1213.47 574.912C1226.56 549.501 1240.88 524.91 1256.02 500.319C1256.02 499.09 1254.79 498.68 1254.38 499.09Z" fill="url(#paint23_linear)"/>
<path d="M1171.73 743.769H934.817C925.406 743.769 917.632 735.982 917.632 726.555V252.771C917.632 243.345 925.406 235.558 934.817 235.558H1171.32C1180.73 235.558 1188.51 243.345 1188.51 252.771V726.555C1188.92 735.982 1181.14 743.769 1171.73 743.769Z" fill="white"/>
<path d="M1067.8 396.218L1006.42 435.973L1120.58 549.911L1182.37 471.22V493.762L1130.4 559.747L1182.37 611.388V631.471L1067.39 516.713L924.179 618.355V601.142L1057.57 506.467L994.557 443.76L924.179 489.253V472.859L1060.43 383.922L1093.17 265.886H1107.49L1075.17 383.513L1182.37 410.972V425.317L1067.8 396.218Z" fill="#94D9FF"/>
<path d="M997.831 265.886L924.179 331.462V312.609L976.963 265.886H997.831Z" fill="#94D9FF"/>
<path d="M1187.28 616.716H919.269V706.883H1187.28V616.716Z" fill="#4EB9F4"/>
<path d="M1198.74 374.086H1188.92V324.495H1198.74C1200.37 324.495 1202.01 325.724 1202.01 327.773V371.217C1202.01 372.447 1200.37 374.086 1198.74 374.086Z" fill="url(#paint24_linear)"/>
<path d="M907.812 374.086H917.632V324.495H907.812C906.175 324.495 904.539 325.724 904.539 327.773V371.217C904.539 372.447 906.175 374.086 907.812 374.086Z" fill="url(#paint25_linear)"/>
<path d="M1198.74 431.465H1188.92V381.873H1198.74C1200.37 381.873 1202.01 383.103 1202.01 385.152V428.596C1202.01 430.235 1200.37 431.465 1198.74 431.465Z" fill="url(#paint26_linear)"/>
<path d="M1171.73 229H934.818C921.724 229 911.085 239.656 911.085 252.771V726.555C911.085 739.671 921.724 750.327 934.818 750.327H1171.32C1184.42 750.327 1195.05 739.671 1195.05 726.555V252.771C1195.46 239.656 1184.82 229 1171.73 229ZM924.179 690.899V272.854C924.179 268.755 927.452 265.886 931.135 265.886H1175C1179.1 265.886 1181.96 269.165 1181.96 272.854V690.899C1181.96 694.997 1178.69 697.866 1175 697.866H931.544C927.452 698.276 924.179 694.997 924.179 690.899Z" fill="url(#paint27_linear)"/>
<path d="M1053.48 586.387C1069.98 586.387 1083.35 579.598 1083.35 571.223C1083.35 562.848 1069.98 556.059 1053.48 556.059C1036.98 556.059 1023.61 562.848 1023.61 571.223C1023.61 579.598 1036.98 586.387 1053.48 586.387Z" stroke="#D15454" stroke-width="0.9378" stroke-miterlimit="10"/>
<path d="M965.506 437.203C981.873 481.056 1025.65 542.124 1044.48 566.715C1048.98 572.453 1057.57 572.453 1061.66 566.715C1080.48 542.124 1124.68 481.056 1140.63 437.203C1144.32 426.957 1146.36 416.3 1146.36 404.825C1146.36 353.184 1104.63 311.379 1053.07 311.379C1001.51 311.379 959.777 353.184 959.777 404.825C959.777 416.3 961.823 427.366 965.506 437.203ZM1103.4 405.235C1103.4 433.104 1080.89 455.236 1053.48 455.236C1025.65 455.236 1003.56 432.694 1003.56 405.235C1003.56 377.365 1026.06 355.233 1053.48 355.233C1080.89 354.823 1103.4 377.365 1103.4 405.235Z" fill="url(#paint28_linear)"/>
<path d="M1017.47 247.853H1097.26" stroke="#6BBFF9" stroke-width="1.5" stroke-miterlimit="10" stroke-linecap="round"/>
<path opacity="0.43" d="M1028.11 726.965H1088.67" stroke="#6BBFF9" stroke-width="5.2203" stroke-miterlimit="10" stroke-linecap="round"/>
<g opacity="0.8">
<path opacity="0.8" d="M990.466 687.62H937.273C936.454 687.62 935.636 686.8 935.636 685.98V632.7C935.636 631.88 936.454 631.061 937.273 631.061H990.466C991.284 631.061 992.102 631.88 992.102 632.7V685.98C992.102 686.8 991.693 687.62 990.466 687.62Z" fill="white"/>
<path opacity="0.8" d="M1170.91 638.438H1000.7C999.877 638.438 999.468 638.028 999.468 637.209V632.29C999.468 631.471 999.877 631.061 1000.7 631.061H1170.91C1171.73 631.061 1172.14 631.471 1172.14 632.29V637.209C1172.14 638.028 1171.73 638.438 1170.91 638.438Z" fill="white"/>
<path opacity="0.8" d="M1170.91 650.733H1000.7C999.877 650.733 999.468 650.324 999.468 649.504V644.586C999.468 643.766 999.877 643.356 1000.7 643.356H1170.91C1171.73 643.356 1172.14 643.766 1172.14 644.586V649.504C1172.14 650.324 1171.73 650.733 1170.91 650.733Z" fill="white"/>
<path opacity="0.8" d="M1116.49 663.029H1000.7C999.877 663.029 999.468 662.619 999.468 661.799V656.881C999.468 656.471 999.877 655.652 1000.7 655.652H1116.49C1116.9 655.652 1117.72 656.061 1117.72 656.881V661.799C1117.31 662.619 1116.9 663.029 1116.49 663.029Z" fill="white"/>
<path opacity="0.8" d="M1170.91 675.324H1000.7C999.877 675.324 999.468 674.914 999.468 674.095V669.177C999.468 668.357 999.877 667.947 1000.7 667.947H1170.91C1171.73 667.947 1172.14 668.357 1172.14 669.177V674.095C1172.14 674.914 1171.73 675.324 1170.91 675.324Z" fill="white"/>
<path opacity="0.8" d="M1068.21 687.62H1000.7C999.877 687.62 999.468 687.21 999.468 686.39V681.472C999.468 680.653 999.877 680.243 1000.7 680.243H1068.21C1068.62 680.243 1069.44 680.653 1069.44 681.472V686.39C1069.44 687.21 1069.03 687.62 1068.21 687.62Z" fill="white"/>
<path opacity="0.8" d="M1170.91 663.029H1124.27C1123.45 663.029 1123.04 662.619 1123.04 661.799V656.881C1123.04 656.471 1123.45 655.652 1124.27 655.652H1170.91C1171.73 655.652 1172.14 656.061 1172.14 656.881V661.799C1172.14 662.619 1171.73 663.029 1170.91 663.029Z" fill="white"/>
</g>
<path d="M1295.3 644.995C1298.92 644.995 1301.85 642.06 1301.85 638.438C1301.85 634.816 1298.92 631.88 1295.3 631.88C1291.69 631.88 1288.76 634.816 1288.76 638.438C1288.76 642.06 1291.69 644.995 1295.3 644.995Z" fill="white"/>
<path d="M1213.47 506.057C1217.08 506.057 1220.01 503.121 1220.01 499.499C1220.01 495.878 1217.08 492.942 1213.47 492.942C1209.85 492.942 1206.92 495.878 1206.92 499.499C1206.92 503.121 1209.85 506.057 1213.47 506.057Z" fill="white"/>
<path d="M782.604 619.585C784.864 619.585 786.696 617.75 786.696 615.486C786.696 613.223 784.864 611.388 782.604 611.388C780.344 611.388 778.512 613.223 778.512 615.486C778.512 617.75 780.344 619.585 782.604 619.585Z" fill="white"/>
<path d="M1322.72 579.42C1324.98 579.42 1326.81 577.585 1326.81 575.321C1326.81 573.058 1324.98 571.223 1322.72 571.223C1320.46 571.223 1318.63 573.058 1318.63 575.321C1318.63 577.585 1320.46 579.42 1322.72 579.42Z" fill="white"/>
<path opacity="0.5" d="M861.985 491.303C864.244 491.303 866.076 489.468 866.076 487.204C866.076 484.941 864.244 483.106 861.985 483.106C859.725 483.106 857.893 484.941 857.893 487.204C857.893 489.468 859.725 491.303 861.985 491.303Z" fill="white"/>
<path d="M1275.25 469.171C1277.51 469.171 1279.34 467.336 1279.34 465.072C1279.34 462.809 1277.51 460.974 1275.25 460.974C1272.99 460.974 1271.16 462.809 1271.16 465.072C1271.16 467.336 1272.99 469.171 1275.25 469.171Z" fill="white"/>
<path d="M1220.01 440.891C1222.27 440.891 1224.11 439.056 1224.11 436.793C1224.11 434.529 1222.27 432.694 1220.01 432.694C1217.75 432.694 1215.92 434.529 1215.92 436.793C1215.92 439.056 1217.75 440.891 1220.01 440.891Z" fill="white"/>
<path d="M799.79 691.718C802.049 691.718 803.881 689.883 803.881 687.62C803.881 685.356 802.049 683.521 799.79 683.521C797.53 683.521 795.698 685.356 795.698 687.62C795.698 689.883 797.53 691.718 799.79 691.718Z" fill="white"/>
<path d="M886.535 493.352C889.925 493.352 892.673 490.599 892.673 487.204C892.673 483.809 889.925 481.056 886.535 481.056C883.145 481.056 880.397 483.809 880.397 487.204C880.397 490.599 883.145 493.352 886.535 493.352Z" fill="white"/>
</g>
<path d="M252.598 274.939H271.26V282H243.809V239.344H252.598V274.939ZM309.492 261.639C309.492 265.838 308.75 269.52 307.266 272.684C305.781 275.848 303.652 278.289 300.879 280.008C298.125 281.727 294.961 282.586 291.387 282.586C287.852 282.586 284.697 281.736 281.924 280.037C279.15 278.338 277.002 275.916 275.479 272.771C273.955 269.607 273.184 265.975 273.164 261.873V259.764C273.164 255.564 273.916 251.873 275.42 248.689C276.943 245.486 279.082 243.035 281.836 241.336C284.609 239.617 287.773 238.758 291.328 238.758C294.883 238.758 298.037 239.617 300.791 241.336C303.564 243.035 305.703 245.486 307.207 248.689C308.73 251.873 309.492 255.555 309.492 259.734V261.639ZM300.586 259.705C300.586 255.232 299.785 251.834 298.184 249.51C296.582 247.186 294.297 246.023 291.328 246.023C288.379 246.023 286.104 247.176 284.502 249.48C282.9 251.766 282.09 255.125 282.07 259.559V261.639C282.07 265.994 282.871 269.373 284.473 271.775C286.074 274.178 288.379 275.379 291.387 275.379C294.336 275.379 296.602 274.227 298.184 271.922C299.766 269.598 300.566 266.219 300.586 261.785V259.705ZM349.629 276.609C348.047 278.504 345.811 279.979 342.92 281.033C340.029 282.068 336.826 282.586 333.311 282.586C329.619 282.586 326.377 281.785 323.584 280.184C320.811 278.562 318.662 276.219 317.139 273.152C315.635 270.086 314.863 266.482 314.824 262.342V259.441C314.824 255.184 315.537 251.502 316.963 248.396C318.408 245.271 320.479 242.889 323.174 241.248C325.889 239.588 329.062 238.758 332.695 238.758C337.754 238.758 341.709 239.969 344.561 242.391C347.412 244.793 349.102 248.299 349.629 252.908H341.074C340.684 250.467 339.814 248.68 338.467 247.547C337.139 246.414 335.303 245.848 332.959 245.848C329.971 245.848 327.695 246.971 326.133 249.217C324.57 251.463 323.779 254.803 323.76 259.236V261.961C323.76 266.434 324.609 269.812 326.309 272.098C328.008 274.383 330.498 275.525 333.779 275.525C337.08 275.525 339.434 274.822 340.84 273.416V266.062H332.842V259.588H349.629V276.609ZM381.064 282H372.275V239.344H381.064V282ZM423.926 282H415.137L398.027 253.934V282H389.238V239.344H398.027L415.166 267.469V239.344H423.926V282Z" fill="black"/>
<defs>
<linearGradient id="paint0_linear" x1="841.656" y1="764.554" x2="841.656" y2="302.66" gradientUnits="userSpaceOnUse">
<stop stop-color="#7742FF"/>
<stop offset="1" stop-color="#77C1FF"/>
</linearGradient>
<linearGradient id="paint1_linear" x1="1210.17" y1="1021.59" x2="1236.54" y2="204.379" gradientUnits="userSpaceOnUse">
<stop stop-color="#7742FF"/>
<stop offset="1" stop-color="#77C1FF"/>
</linearGradient>
<linearGradient id="paint2_linear" x1="1053.28" y1="753.015" x2="1053.28" y2="192.672" gradientUnits="userSpaceOnUse">
<stop stop-color="#7742FF"/>
<stop offset="1" stop-color="#77C1FF"/>
</linearGradient>
<linearGradient id="paint3_linear" x1="1045.58" y1="754.109" x2="1045.58" y2="240.73" gradientUnits="userSpaceOnUse">
<stop stop-color="#7742FF"/>
<stop offset="1" stop-color="#77C1FF"/>
</linearGradient>
<linearGradient id="paint4_linear" x1="921.577" y1="655.646" x2="833.4" y2="518.479" gradientUnits="userSpaceOnUse">
<stop stop-color="#773DFF"/>
<stop offset="1" stop-color="#77FFFF"/>
</linearGradient>
<linearGradient id="paint5_linear" x1="956.597" y1="755.587" x2="862.223" y2="528.743" gradientUnits="userSpaceOnUse">
<stop stop-color="#7790FF"/>
<stop offset="1" stop-color="#B5FFFF"/>
</linearGradient>
<linearGradient id="paint6_linear" x1="1206.33" y1="773.026" x2="1297.24" y2="633.131" gradientUnits="userSpaceOnUse">
<stop stop-color="#7790FF"/>
<stop offset="1" stop-color="#77FFFF"/>
</linearGradient>
<linearGradient id="paint7_linear" x1="1176.24" y1="705.367" x2="1237.85" y2="705.367" gradientUnits="userSpaceOnUse">
<stop stop-color="#7790FF"/>
<stop offset="1" stop-color="#B5FFFF"/>
</linearGradient>
<linearGradient id="paint8_linear" x1="1176.43" y1="731.744" x2="1278.36" y2="731.744" gradientUnits="userSpaceOnUse">
<stop stop-color="#7790FF"/>
<stop offset="1" stop-color="#B5FFFF"/>
</linearGradient>
<linearGradient id="paint9_linear" x1="1176.74" y1="755.148" x2="1317.34" y2="755.148" gradientUnits="userSpaceOnUse">
<stop stop-color="#7790FF"/>
<stop offset="1" stop-color="#B5FFFF"/>
</linearGradient>
<linearGradient id="paint10_linear" x1="900.217" y1="773.026" x2="809.307" y2="633.131" gradientUnits="userSpaceOnUse">
<stop stop-color="#7790FF"/>
<stop offset="1" stop-color="#77FFFF"/>
</linearGradient>
<linearGradient id="paint11_linear" x1="868.701" y1="705.367" x2="930.316" y2="705.367" gradientUnits="userSpaceOnUse">
<stop stop-color="#B5FFFF"/>
<stop offset="1" stop-color="#7790FF"/>
</linearGradient>
<linearGradient id="paint12_linear" x1="828.191" y1="731.743" x2="930.125" y2="731.743" gradientUnits="userSpaceOnUse">
<stop stop-color="#B5FFFF"/>
<stop offset="1" stop-color="#7790FF"/>
</linearGradient>
<linearGradient id="paint13_linear" x1="789.21" y1="755.148" x2="929.807" y2="755.148" gradientUnits="userSpaceOnUse">
<stop stop-color="#B5FFFF"/>
<stop offset="1" stop-color="#7790FF"/>
</linearGradient>
<linearGradient id="paint14_linear" x1="833.527" y1="680.425" x2="945.768" y2="680.425" gradientUnits="userSpaceOnUse">
<stop stop-color="#B5FFFF"/>
<stop offset="1" stop-color="#7790FF"/>
</linearGradient>
<linearGradient id="paint15_linear" x1="809.937" y1="567.223" x2="824.485" y2="624.449" gradientUnits="userSpaceOnUse">
<stop stop-color="white"/>
<stop offset="1" stop-color="#77FFFF"/>
</linearGradient>
<linearGradient id="paint16_linear" x1="833.968" y1="561.114" x2="848.508" y2="618.308" gradientUnits="userSpaceOnUse">
<stop stop-color="white"/>
<stop offset="1" stop-color="#77FFFF"/>
</linearGradient>
<linearGradient id="paint17_linear" x1="821.813" y1="564.204" x2="836.353" y2="621.398" gradientUnits="userSpaceOnUse">
<stop stop-color="white"/>
<stop offset="1" stop-color="#77FFFF"/>
</linearGradient>
<linearGradient id="paint18_linear" x1="1164.93" y1="664.543" x2="1277.17" y2="664.543" gradientUnits="userSpaceOnUse">
<stop stop-color="#B5FFFF"/>
<stop offset="1" stop-color="#7790FF"/>
</linearGradient>
<linearGradient id="paint19_linear" x1="1300.76" y1="551.34" x2="1286.21" y2="608.566" gradientUnits="userSpaceOnUse">
<stop stop-color="white"/>
<stop offset="1" stop-color="#77FFFF"/>
</linearGradient>
<linearGradient id="paint20_linear" x1="1276.73" y1="545.231" x2="1262.19" y2="602.425" gradientUnits="userSpaceOnUse">
<stop stop-color="white"/>
<stop offset="1" stop-color="#77FFFF"/>
</linearGradient>
<linearGradient id="paint21_linear" x1="1288.88" y1="548.321" x2="1274.34" y2="605.515" gradientUnits="userSpaceOnUse">
<stop stop-color="white"/>
<stop offset="1" stop-color="#77FFFF"/>
</linearGradient>
<linearGradient id="paint22_linear" x1="1170.37" y1="655.646" x2="1258.54" y2="518.479" gradientUnits="userSpaceOnUse">
<stop stop-color="#773DFF"/>
<stop offset="1" stop-color="#77FFFF"/>
</linearGradient>
<linearGradient id="paint23_linear" x1="1135.35" y1="755.587" x2="1229.72" y2="528.743" gradientUnits="userSpaceOnUse">
<stop stop-color="#7790FF"/>
<stop offset="1" stop-color="#B5FFFF"/>
</linearGradient>
<linearGradient id="paint24_linear" x1="1189.12" y1="349.137" x2="1201.91" y2="349.137" gradientUnits="userSpaceOnUse">
<stop stop-color="#1D244C"/>
<stop offset="1" stop-color="#1D249F"/>
</linearGradient>
<linearGradient id="paint25_linear" x1="917.413" y1="349.137" x2="904.627" y2="349.137" gradientUnits="userSpaceOnUse">
<stop stop-color="#1D244C"/>
<stop offset="1" stop-color="#1D249F"/>
</linearGradient>
<linearGradient id="paint26_linear" x1="1189.12" y1="406.772" x2="1201.91" y2="406.772" gradientUnits="userSpaceOnUse">
<stop stop-color="#1D244C"/>
<stop offset="1" stop-color="#1D249F"/>
</linearGradient>
<linearGradient id="paint27_linear" x1="1053.27" y1="209.242" x2="1053.27" y2="736.957" gradientUnits="userSpaceOnUse">
<stop stop-color="#1D249F"/>
<stop offset="1" stop-color="#1D244C"/>
</linearGradient>
<linearGradient id="paint28_linear" x1="1053.28" y1="312.922" x2="1053.28" y2="562.216" gradientUnits="userSpaceOnUse">
<stop stop-color="#ED683B"/>
<stop offset="1" stop-color="#E83E39"/>
</linearGradient>
<clipPath id="clip0">
<rect width="651" height="566" fill="white" transform="translate(720 229)"/>
</clipPath>
</defs>
</svg>
